<?xml version="1.0" encoding="utf-8"?><svg width="256" height="235" viewBox="0 0 256 235" xmlns="http://www.w3.org/2000/svg" xmlns:xlink="http://www.w3.org/1999/xlink"><svg width="46" height="46" viewBox="-1 -1 46 46" id="18" x="69" y="140" xmlns="http://www.w3.org/2000/svg"><g fill="none" fill-rule="evenodd"><circle cx="22" cy="22" r="22" fill="#FFF"/><text fill="#323232" font-family="SukhumvitSet-Medium, Sukhumvit Set" font-size="22" font-weight="400" letter-spacing="-1.777"><tspan x="5.579" y="28">18+</tspan></text></g></svg><svg width="26" height="26" viewBox="-1 -1 26 26" id="angle-right" x="26" y="209" xmlns="http://www.w3.org/2000/svg"><defs><path id="ba" d="M15.76 12.664l-5.312 5.313a.934.934 0 0 1-1.325 0l-.883-.883a.934.934 0 0 1 0-1.324l3.766-3.766L8.24 8.238a.934.934 0 0 1 0-1.324l.88-.89a.934.934 0 0 1 1.324 0l5.312 5.312c.371.367.371.96.004 1.328z"/></defs><g fill="none" fill-rule="evenodd"><mask id="bb" fill="#fff"><use xlink:href="#ba"/></mask><use fill="#000" fill-rule="nonzero" xlink:href="#ba"/><g fill="#4A90E2" mask="url(#bb)"><path d="M0 0h24v24H0z"/></g></g></svg><svg width="43" height="42" viewBox="-1 -1 43 42" id="call" x="158" y="140" xmlns="http://www.w3.org/2000/svg"><g fill="none" fill-rule="evenodd"><circle cx="20.5" cy="20.5" r="20.5" fill="#0BAC00"/><path fill="#FFF" fill-rule="nonzero" d="M35 19.64c0 7.532-6.153 13.639-13.746 13.639-2.41 0-4.674-.616-6.644-1.697L7 34l2.481-7.318a13.496 13.496 0 0 1-1.972-7.043C7.509 12.106 13.663 6 21.254 6 28.847 6 35 12.106 35 19.64zM21.254 8.171c-6.372 0-11.556 5.144-11.556 11.467 0 2.51.818 4.833 2.201 6.724l-1.443 4.258 4.44-1.411a11.549 11.549 0 0 0 6.359 1.897c6.372 0 11.556-5.144 11.556-11.467S27.627 8.172 21.254 8.172zm6.942 14.609c-.085-.14-.31-.223-.646-.39-.337-.167-1.994-.977-2.302-1.088-.31-.111-.535-.167-.759.167-.224.335-.87 1.088-1.067 1.31-.197.224-.393.252-.73.085-.337-.167-1.422-.52-2.71-1.66-1-.885-1.677-1.979-1.874-2.314-.196-.335-.02-.515.148-.682.152-.15.337-.39.506-.585.168-.196.224-.335.336-.558.113-.223.057-.418-.028-.586-.084-.167-.758-1.812-1.039-2.482-.28-.669-.56-.557-.758-.557-.196 0-.421-.028-.646-.028-.224 0-.59.084-.898.418-.31.335-1.18 1.144-1.18 2.788 0 1.646 1.208 3.235 1.376 3.458.169.223 2.33 3.708 5.756 5.047 3.426 1.338 3.426.892 4.044.836.617-.056 1.993-.809 2.274-1.59.28-.78.28-1.45.197-1.59z"/></g></svg><svg width="30" height="32" viewBox="-1 -1 30 32" id="call-center" x="208" y="101" xmlns="http://www.w3.org/2000/svg"><g fill="none" fill-rule="evenodd"><circle cx="21.5" cy="13.833" r="1.167"/><path fill="#FFAB00" fill-rule="nonzero" d="M22.705 23.11c-4.458-.39-6.639-2.738-7.47-3.955a5.288 5.288 0 0 1-4.342.956 5.261 5.261 0 0 1-4.122-5.133 5.261 5.261 0 0 1 4.514-5.204V.03l.002-.03A12.41 12.41 0 0 0 8.47.567c-3.199.977-5.482 3.044-6.866 5.604A12.302 12.302 0 0 0 0 12.274l.002.246-.002.204c0 .447.025.884.074 1.311.555 6.3 4.054 7.137 4.41 11.476.02.269.03.539.03.809V30h13.542v-3.455l1.956.375a3.628 3.628 0 0 0 4.321-2.951 1.505 1.505 0 0 1-1.629-.86z"/><path fill="#FFAB00" fill-rule="nonzero" d="M27.788 15.93l-2.776-4.66c-.225-2.85-1.143-5.664-3.042-7.768a6.82 6.82 0 0 0 .04-.722c-1.191-.993-2.864-1.713-4.655-2.172C16.091.218 14.647 0 13.003 0H13a.925.925 0 0 1 .003.075v9.747a5.256 5.256 0 0 1 4.503 5.206 5.24 5.24 0 0 1-.998 3.085c.46.768 2.228 3.182 6.533 3.554a1.498 1.498 0 0 1 1.754-.53l.217-2.353 2.176-.901c.75-.3 1.05-1.202.6-1.954zm-6.154-.902a1.126 1.126 0 1 1 .001-2.253 1.126 1.126 0 0 1 0 2.253z"/><circle cx="12" cy="15" r="3" fill="#FFAB00" fill-rule="nonzero"/></g></svg><svg width="26" height="26" viewBox="-1 -1 26 26" id="chevron-left" x="52" y="209" xmlns="http://www.w3.org/2000/svg"><path fill="#FFF" fill-rule="evenodd" d="M15.4 7.4L14 6l-6 6 6 6 1.4-1.4-4.6-4.6z"/></svg><svg width="26" height="26" viewBox="-1 -1 26 26" id="chevron-right" y="209" xmlns="http://www.w3.org/2000/svg"><path fill="#FFF" fill-rule="evenodd" d="M8.6 7.4L10 6l6 6-6 6-1.4-1.4 4.6-4.6z"/></svg><svg width="43" height="42" viewBox="-1 -1 43 42" id="fb" x="201" y="140" xmlns="http://www.w3.org/2000/svg"><g fill="none" fill-rule="evenodd"><circle cx="20.5" cy="20.5" r="20.5" fill="#2363AF"/><path fill="#FFF" fill-rule="nonzero" d="M16.026 11.81v4.13H13v5.051h3.026V36h6.216V20.992h4.171s.391-2.422.58-5.07h-4.727v-3.454c0-.516.677-1.21 1.347-1.21H27V6h-4.605c-6.523 0-6.369 5.055-6.369 5.81z"/></g></svg><svg width="26" height="34" viewBox="-1 -1 26 34" id="fill-1" x="182" y="101" xmlns="http://www.w3.org/2000/svg"><path fill="#FFF" fill-rule="evenodd" d="M12.87 23.706v2.443c0 .47-.39.851-.871.851a.881.881 0 0 1-.617-.25.838.838 0 0 1-.256-.6v-2.445A1.947 1.947 0 0 1 10 21.95c0-1.077.895-1.95 2-1.95 1.104 0 2 .873 2 1.95 0 .773-.46 1.44-1.13 1.756M8.036 6.947a6.42 6.42 0 0 1 .31-1.155c.164-.358.36-.698.586-1.02.246-.3.518-.578.814-.828.315-.23.65-.43 1.002-.597a6.132 6.132 0 0 1 1.137-.317c.404-.04.81-.04 1.214 0 .392.069.774.175 1.146.319a6.25 6.25 0 0 1 1.002.597c.293.25.563.524.807.822.227.322.423.663.587 1.022.144.387.25.786.318 1.195.072.781.03 1.586.03 2.366V13H8V8.235c0-.43-.004-.86.035-1.288m13.559 5.936h-2.171V7.59a7.964 7.964 0 0 0-.867-3.565C17.544 2.002 15.496.467 13.305.112c-1.121-.181-2.242-.154-3.34.164-1.016.294-1.896.819-2.717 1.483-.706.572-1.3 1.332-1.736 2.136-.522.963-.79 1.984-.903 3.072-.082.787-.031 1.602-.031 2.392v3.524H2.407C1.077 12.883 0 13.987 0 15.348v14.187C0 30.895 1.077 32 2.407 32h19.187C22.923 32 24 30.896 24 29.535V15.348c0-1.36-1.077-2.465-2.406-2.465"/></svg><svg width="43" height="42" viewBox="-1 -1 43 42" id="line" x="115" y="140" xmlns="http://www.w3.org/2000/svg"><g fill="none" fill-rule="evenodd"><circle cx="20.5" cy="20.5" r="20.5" fill="#66C200"/><path fill="#FFF" d="M29.61 17.704a.274.274 0 0 1-.272.276h-2.669v1.043h2.669c.15 0 .272.124.272.277v.993a.274.274 0 0 1-.272.276h-2.669v1.044h2.669c.15 0 .272.124.272.276v.994a.274.274 0 0 1-.272.276h-3.923a.27.27 0 0 1-.19-.077l-.003-.004a.276.276 0 0 1-.08-.195V16.71c0-.074.029-.14.076-.19 0-.002.002-.003.004-.005l.003-.003a.268.268 0 0 1 .19-.078h3.923c.15 0 .272.124.272.276v.994zm-5.423 5.18a.274.274 0 0 1-.272.274h-.982a.277.277 0 0 1-.07-.009h-.004l-.02-.007-.007-.003-.013-.005a.159.159 0 0 1-.013-.007l-.008-.004a.096.096 0 0 1-.017-.01c0-.002-.002-.002-.003-.003a.28.28 0 0 1-.069-.067l-2.799-3.826v3.667a.274.274 0 0 1-.273.274h-.982a.274.274 0 0 1-.272-.274V16.71c0-.152.122-.276.272-.276h.992l.014.002c.005 0 .01 0 .015.002l.01.001c.007 0 .011.002.017.004a.1.1 0 0 0 .01.002l.015.005a.242.242 0 0 1 .01.004l.015.006.009.005.014.008.008.004.014.01.007.006.015.012.005.005c.005.006.011.01.016.017l.002.002a.186.186 0 0 1 .021.028l2.796 3.82V16.71c0-.152.122-.276.273-.276h.982c.15 0 .272.124.272.276v6.174zm-6.76 0a.273.273 0 0 1-.272.274h-.982a.274.274 0 0 1-.273-.274V16.71c0-.152.123-.276.273-.276h.982c.151 0 .273.124.273.276v6.174zm-2.367-.001a.274.274 0 0 1-.272.276h-3.923a.27.27 0 0 1-.192-.08l-.004-.006a.273.273 0 0 1-.076-.19V16.71c0-.152.122-.276.272-.276h.982c.15 0 .273.124.273.276v4.903h2.668c.15 0 .272.123.272.276v.994zM34 19.498C34 13.158 27.72 8 20 8S6 13.158 6 19.498c0 5.684 4.98 10.444 11.708 11.343.456.1 1.077.305 1.234.7.14.357.092.919.045 1.28l-.2 1.213c-.06.358-.28 1.401 1.213.764 1.494-.637 8.062-4.805 11-8.226h-.001C33.028 24.32 34 22.035 34 19.498z"/></g></svg><svg width="69" height="69" viewBox="-1 -1 69 69" id="noun-1231260-cc" y="140" xmlns="http://www.w3.org/2000/svg"><defs><filter id="ja" width="102.2%" height="103.6%" x="-1.1%" y="-1.3%" filterUnits="objectBoundingBox"><feOffset dy="2" in="SourceAlpha" result="shadowOffsetOuter1"/><feGaussianBlur in="shadowOffsetOuter1" result="shadowBlurOuter1" stdDeviation="2"/><feColorMatrix in="shadowBlurOuter1" result="shadowMatrixOuter1" values="0 0 0 0 0 0 0 0 0 0 0 0 0 0 0 0 0 0 0.5 0"/><feMerge><feMergeNode in="shadowMatrixOuter1"/><feMergeNode in="SourceGraphic"/></feMerge></filter></defs><g fill="#FFF" filter="url(#ja)" transform="translate(-484 -159)"><path d="M546.015 187.593l-2.861-3.736a.683.683 0 0 1-.137-.505l.628-4.536a4.782 4.782 0 0 0-2.957-5.096l-4.303-1.72a.683.683 0 0 1-.382-.383l-1.722-4.303a4.78 4.78 0 0 0-5.095-2.965l-4.528.629a.683.683 0 0 1-.512-.137l-3.736-2.855a4.78 4.78 0 0 0-5.813 0l-3.736 2.862a.683.683 0 0 1-.512.137l-4.535-.629a4.78 4.78 0 0 0-5.095 2.958l-1.722 4.303a.683.683 0 0 1-.382.383l-4.303 1.721a4.782 4.782 0 0 0-2.957 5.096l.628 4.536a.683.683 0 0 1-.137.505l-2.861 3.736a4.782 4.782 0 0 0 0 5.814l2.861 3.736c.111.144.16.325.137.505l-.628 4.536a4.782 4.782 0 0 0 2.957 5.096l4.303 1.721c.175.07.313.208.382.383l1.722 4.303a4.78 4.78 0 0 0 5.095 2.958l4.528-.629a.683.683 0 0 1 .512.137l3.736 2.862a4.78 4.78 0 0 0 5.813 0l3.736-2.862a.683.683 0 0 1 .512-.137l4.535.629a4.78 4.78 0 0 0 5.095-2.958l1.722-4.303a.683.683 0 0 1 .382-.383l4.303-1.721a4.782 4.782 0 0 0 2.957-5.096l-.628-4.536a.683.683 0 0 1 .137-.505l2.861-3.736a4.782 4.782 0 0 0 0-5.814zm-3.244 3.327l-2.869 3.737a4.782 4.782 0 0 0-.942 3.558l.628 4.53a.683.683 0 0 1-.423.737l-4.303 1.721a4.781 4.781 0 0 0-2.664 2.664l-1.721 4.304a.683.683 0 0 1-.724.423l-4.535-.628a4.78 4.78 0 0 0-3.559.942l-3.742 2.87a.683.683 0 0 1-.834 0l-3.736-2.87a4.822 4.822 0 0 0-3.558-.942l-4.535.628a.683.683 0 0 1-.731-.423l-1.721-4.304a4.781 4.781 0 0 0-2.664-2.664l-4.303-1.721a.683.683 0 0 1-.423-.73l.628-4.53a4.782 4.782 0 0 0-.942-3.559l-2.87-3.743a.683.683 0 0 1 0-.833l2.863-3.737a4.782 4.782 0 0 0 .942-3.559l-.628-4.528a.683.683 0 0 1 .43-.738l4.303-1.721a4.781 4.781 0 0 0 2.664-2.665l1.721-4.303a.683.683 0 0 1 .73-.423l4.536.628a4.78 4.78 0 0 0 3.558-.943l3.736-2.869a.683.683 0 0 1 .827 0l3.736 2.863a4.828 4.828 0 0 0 3.558.942l4.535-.628a.683.683 0 0 1 .724.423l1.722 4.304a4.781 4.781 0 0 0 2.663 2.664l4.317 1.728a.683.683 0 0 1 .423.73l-.628 4.53a4.782 4.782 0 0 0 .942 3.558l2.87 3.744a.686.686 0 0 1 0 .833z"/><path d="M525.505 181.676l-11.324 13.397-5.922-4.915a1.997 1.997 0 0 0-2.801.326 2.09 2.09 0 0 0 .238 2.863l7.42 6.187a1.997 1.997 0 0 0 2.812-.248l12.612-14.915a2.09 2.09 0 0 0-.241-2.87 1.997 1.997 0 0 0-2.82.175h.026z"/></g></svg><svg width="74" height="101" viewBox="-1 -1 74 101" id="noun-160439-cc" x="182" xmlns="http://www.w3.org/2000/svg"><defs><filter id="ka" width="102.2%" height="103.6%" x="-1.1%" y="-1.3%" filterUnits="objectBoundingBox"><feOffset dy="2" in="SourceAlpha" result="shadowOffsetOuter1"/><feGaussianBlur in="shadowOffsetOuter1" result="shadowBlurOuter1" stdDeviation="2"/><feColorMatrix in="shadowBlurOuter1" result="shadowMatrixOuter1" values="0 0 0 0 0 0 0 0 0 0 0 0 0 0 0 0 0 0 0.5 0"/><feMerge><feMergeNode in="shadowMatrixOuter1"/><feMergeNode in="SourceGraphic"/></feMerge></filter></defs><g fill="#FFF" filter="url(#ka)" transform="translate(-297 -138)"><path d="M325.568 216.932h-3.252a2.025 2.025 0 0 0-2.025 2.025v3.252c0 1.118.907 2.025 2.025 2.025h3.252a2.025 2.025 0 0 0 2.025-2.025v-3.252a2.025 2.025 0 0 0-2.025-2.025z"/><path d="M364.247 173.456h-17.764v-8.278c0-4.815-3.917-8.732-8.732-8.732h-27.618c-4.815 0-8.732 3.917-8.732 8.732v56.301c0 4.815 3.917 8.732 8.732 8.732h27.618c4.815 0 8.732-3.917 8.732-8.732v-13.766h17.764v-34.257zm-3.099 31.158H319.01v-6.288h5.112a1.549 1.549 0 1 0 0-3.098h-5.112v-.04h-5.267a1.549 1.549 0 1 1 0-3.098h10.38c.125 0 .246.016.362.044h11.179a1.549 1.549 0 1 0 0-3.098H319.01v-5.478h8.909a1.549 1.549 0 1 0 0-3.098h-8.909v-3.904h42.138v28.058zm-23.396 22.498h-27.619a5.64 5.64 0 0 1-5.633-5.633v-56.301a5.64 5.64 0 0 1 5.633-5.633h27.618a5.64 5.64 0 0 1 5.633 5.633v8.278h-3.95v-4.675H308.45v44.066h30.986v-5.134h3.95v13.766a5.64 5.64 0 0 1-5.634 5.633z"/><path d="M344.865 186.491c0 2.433 1.452 3.558 4.397 4.356v3.252c-.941-.205-1.759-.593-2.618-1.145a1.483 1.483 0 0 0-.798-.266c-.798 0-1.411.593-1.411 1.391 0 .552.266.961.695 1.227a10.232 10.232 0 0 0 4.029 1.431v1.104c0 .593.47 1.063 1.063 1.063s1.063-.47 1.063-1.063v-1.084c2.577-.286 4.335-1.759 4.335-4.049 0-2.29-1.329-3.558-4.438-4.397v-3.108c.552.143 1.125.389 1.697.695.225.123.47.184.716.184.777 0 1.391-.593 1.391-1.37 0-.613-.348-1.002-.736-1.227-.879-.491-1.861-.818-2.965-.982v-.286c0-.593-.47-1.063-1.063-1.063s-1.063.47-1.063 1.063v.245c-2.577.266-4.294 1.779-4.294 4.029zm6.319 4.867c1.104.389 1.452.838 1.452 1.513 0 .736-.491 1.186-1.452 1.329v-2.842zm-1.923-6.34v2.761c-1.125-.409-1.411-.838-1.411-1.472 0-.655.43-1.145 1.411-1.289zm-41.953-36.325a1.54 1.54 0 0 0 1.046-.407c3.526-3.23 9.353-5.158 15.588-5.158 6.235 0 12.062 1.928 15.588 5.158a1.55 1.55 0 1 0 2.093-2.285c-4.082-3.738-10.691-5.971-17.681-5.971-6.989 0-13.599 2.232-17.681 5.971a1.55 1.55 0 0 0 1.047 2.692z"/><path d="M323.942 146.42c-4.501 0-8.607 1.234-11.267 3.387a1.55 1.55 0 0 0 1.949 2.409c2.087-1.689 5.57-2.697 9.318-2.697 3.748 0 7.231 1.008 9.318 2.697a1.55 1.55 0 0 0 1.949-2.409c-2.659-2.152-6.766-3.387-11.267-3.387z"/></g></svg><svg width="182" height="70" viewBox="-1 -1 182 70" id="rectangle-1-google-play-icon-imported-layers-download-on-the-imported-layers" y="70" xmlns="http://www.w3.org/2000/svg"><defs><filter id="la" width="108.1%" height="123.3%" x="-4.1%" y="-8.3%" filterUnits="objectBoundingBox"><feOffset dy="2" in="SourceAlpha" result="shadowOffsetOuter1"/><feGaussianBlur in="shadowOffsetOuter1" result="shadowBlurOuter1" stdDeviation="2"/><feColorMatrix in="shadowBlurOuter1" result="shadowMatrixOuter1" values="0 0 0 0 0 0 0 0 0 0 0 0 0 0 0 0 0 0 0.5 0"/><feMerge><feMergeNode in="shadowMatrixOuter1"/><feMergeNode in="SourceGraphic"/></feMerge></filter></defs><g fill="none" fill-rule="evenodd" filter="url(#la)" transform="translate(4 2)"><rect width="172" height="60" fill="#000" rx="10"/><text fill="#FFF" font-family="MyriadPro-Regular, Myriad Pro" font-size="14"><tspan x="43" y="19">Download on the</tspan> <tspan x="43" y="36.8" font-family="MyriadPro-Semibold, Myriad Pro" font-size="28" font-weight="500">App Store</tspan></text><path fill="#FFF" d="M26.689 29.249c3.242 0 5.316 3.137 5.316 3.137s-3.163 1.717-3.163 5.445c0 4.424 3.974 5.711 3.974 5.711s-3.137 7.442-6.659 7.442c-1.98 0-2.112-1.139-4.744-1.139-2.286 0-3.056 1.14-4.797 1.14C13.293 50.984 9 43.73 9 37.83c0-6.128 4.346-8.582 7.07-8.582 2.393 0 3.39 1.408 5.316 1.408 1.622 0 2.898-1.408 5.303-1.408zM26.13 23c.478 3.004-2.246 6.718-5.502 6.598-.479-3.822 3.03-6.396 5.502-6.598z"/></g></svg><svg width="182" height="70" viewBox="-1 -1 182 70" id="rectangle-1-google-play-icon-imported-layers-get-it-on" xmlns="http://www.w3.org/2000/svg"><defs><filter id="ma" width="108.1%" height="123.3%" x="-4.1%" y="-8.3%" filterUnits="objectBoundingBox"><feOffset dy="2" in="SourceAlpha" result="shadowOffsetOuter1"/><feGaussianBlur in="shadowOffsetOuter1" result="shadowBlurOuter1" stdDeviation="2"/><feColorMatrix in="shadowBlurOuter1" result="shadowMatrixOuter1" values="0 0 0 0 0 0 0 0 0 0 0 0 0 0 0 0 0 0 0.5 0"/><feMerge><feMergeNode in="shadowMatrixOuter1"/><feMergeNode in="SourceGraphic"/></feMerge></filter><linearGradient id="mb" x1="19.215%" x2="69.302%" y1="-35.157%" y2="93.537%"><stop offset="0%" stop-color="#19A3B4"/><stop offset="34.817%" stop-color="#5BC3AF"/><stop offset="92.234%" stop-color="#C8F7A6"/><stop offset="100%" stop-color="#D7FEA5"/></linearGradient><path id="mc" d="M20.245 9.637L3.13.288C2.644.024 2.196-.037 1.834.075l14.02 13.926 4.391-4.364"/><linearGradient id="md" x1="-14.698%" x2="74.844%" y1="-114.322%" y2="114.156%"><stop offset="0%" stop-color="#FC227C"/><stop offset="100%" stop-color="#FEEB7B"/></linearGradient><linearGradient id="me" x1="28.151%" x2="48.188%" y1="-14.814%" y2="82.894%"><stop offset="0%" stop-color="#0E4DA0"/><stop offset="100%" stop-color="#6BFED4"/></linearGradient><path id="mf" d="M1.833.075C1.313.237.975.761.975 1.553l.003 24.93c0 .783.327 1.299.832 1.47l14.043-13.95L1.833.075"/><linearGradient id="mg" x1="132.245%" x2="5.959%" y1="16.466%" y2="126.31%"><stop offset="0%" stop-color="#FC472E"/><stop offset=".332%" stop-color="#FC472F"/><stop offset="100%" stop-color="#893CD8"/></linearGradient><path id="mh" d="M1.81 27.954c.365.122.822.065 1.32-.206l17.135-9.362-4.412-4.383L1.81 27.953"/></defs><g fill="none" fill-rule="evenodd" filter="url(#ma)" transform="translate(4 2)"><rect width="172" height="60" fill="#000" rx="10"/><g transform="translate(7 25)"><use fill="url(#mb)" xlink:href="#mc"/><path fill="url(#md)" d="M20.268 18.386l5.843-3.191c1.184-.65 1.184-1.706 0-2.354l-5.865-3.204-4.393 4.364 4.415 4.385"/><use fill="url(#me)" xlink:href="#mf"/><use fill="url(#mg)" xlink:href="#mh"/></g><g fill="#FFF"><path d="M117.173 45.212l-1.285 1.227c-.297.165-.593.357-.887.493-.893.41-1.8.513-2.607.513-.858 0-2.204-.056-3.576-1.06-1.907-1.36-2.74-3.696-2.74-5.731 0-4.215 3.39-6.282 6.156-6.282.967 0 1.96.245 2.767.761 1.342.898 1.69 2.066 1.882 2.69l-6.316 2.583-2.069.162c.67 3.456 2.98 5.466 5.534 5.466 1.275 0 2.222-.421 3.09-.856 0 0 .175-.091.05.034zm-3.81-6.874c.512-.188.779-.35.779-.73 0-1.085-1.214-2.34-2.663-2.34-1.074 0-3.089.846-3.089 3.783 0 .459.054.947.081 1.435l4.891-2.147z"/><path d="M103.967 45.002c0 1.056.186 1.22 1.069 1.303.46.055.919.08 1.372.134l-.993.599h-4.735c.621-.816.728-.897.728-1.44v-.606l-.01-16.163h-2.091l2.012-.981h3.843c-.833.488-1.082.785-1.19 1.737l-.005 15.417"/><path d="M96.623 35.706c.617.513 1.905 1.602 1.905 3.668 0 2.013-1.122 2.962-2.253 3.86-.347.353-.754.737-.754 1.33 0 .602.407.928.699 1.171l.97.758c1.18 1.008 2.256 1.932 2.256 3.809 0 2.557-2.446 5.135-7.068 5.135-3.893 0-5.775-1.876-5.775-3.887 0-.98.481-2.366 2.07-3.315 1.666-1.03 3.923-1.168 5.131-1.249-.377-.493-.808-1.01-.808-1.852 0-.46.137-.735.27-1.06-.295.03-.59.058-.86.058-2.85 0-4.46-2.15-4.46-4.27 0-1.25.564-2.638 1.721-3.643 1.532-1.276 3.358-1.496 4.81-1.496h5.537l-1.722.983h-1.669zM94.72 47.774c-.22-.029-.353-.029-.619-.029-.244 0-1.695.053-2.82.435-.594.22-2.313.87-2.313 2.8 0 1.928 1.856 3.317 4.727 3.317 2.58 0 3.95-1.25 3.95-2.935 0-1.386-.887-2.118-2.925-3.588zm.772-5.165c.621-.628.675-1.495.675-1.987 0-1.955-1.152-5-3.385-5-.697 0-1.452.354-1.88.9-.455.567-.59 1.302-.59 2.008 0 1.82 1.049 4.84 3.357 4.84.673 0 1.398-.331 1.823-.761zm-15.526 4.78c-4.27 0-6.556-3.365-6.556-6.412 0-3.56 2.873-6.605 6.959-6.605 3.95 0 6.423 3.129 6.423 6.414 0 3.208-2.445 6.603-6.826 6.603zm3.36-2.2c.65-.87.807-1.955.807-3.014 0-2.394-1.127-6.96-4.46-6.96-.886 0-1.778.35-2.421.923-1.05.951-1.237 2.147-1.237 3.32 0 2.685 1.312 7.115 4.569 7.115 1.05 0 2.123-.515 2.742-1.383zm-17.659 2.2c-4.271 0-6.552-3.365-6.552-6.412 0-3.56 2.873-6.605 6.957-6.605 3.948 0 6.42 3.129 6.42 6.414 0 3.208-2.443 6.603-6.825 6.603zm3.36-2.2c.646-.87.807-1.955.807-3.014 0-2.394-1.131-6.96-4.46-6.96a3.7 3.7 0 0 0-2.417.923c-1.05.951-1.237 2.147-1.237 3.32 0 2.685 1.317 7.115 4.568 7.115 1.049 0 2.12-.515 2.74-1.383zm-11.62 1.257l-3.602.834c-1.46.233-2.77.438-4.158.438-6.947 0-9.594-5.175-9.594-9.224 0-4.945 3.75-9.53 10.174-9.53 1.359 0 2.666.202 3.857.53 1.888.537 2.771 1.198 3.323 1.586l-2.093 2.01-.882.2.63-1.014c-.853-.842-2.419-2.396-5.39-2.396-3.975 0-6.972 3.056-6.972 7.518 0 4.793 3.423 9.3 8.912 9.3 1.613 0 2.444-.327 3.198-.633v-4.109l-3.804.207 2.016-1.095h5.338l-.653.635c-.176.152-.2.203-.25.406-.025.232-.05.97-.05 1.23v3.107m67.51-1.118v6.924h-1.359V34.634h1.36v2.006c.885-1.297 2.502-2.324 4.381-2.324 3.37 0 5.64 2.586 5.64 6.68 0 4.068-2.27 6.709-5.64 6.709-1.774 0-3.363-.926-4.382-2.377zm8.562-4.331c0-3.086-1.59-5.44-4.409-5.44-1.75 0-3.425 1.392-4.153 2.606v5.64c.728 1.216 2.402 2.659 4.153 2.659 2.82 0 4.41-2.374 4.41-5.465zm3.316-11.228h1.359v17.618h-1.359zm16.609 21.344c.29.131.786.212 1.1.212.832 0 1.41-.344 1.93-1.559l.992-2.272-5.354-12.86h1.516l4.593 11.144 4.548-11.144h1.537l-6.53 15.558c-.677 1.603-1.743 2.374-3.207 2.374-.44 0-1.02-.079-1.359-.184l.234-1.269m-3.97-3.763c-.09-.443-.16-.833-.21-1.158a7.854 7.854 0 0 1-.065-.994c-.466.692-1.126 1.268-1.969 1.721-.844.457-1.645.681-2.745.681-1.324 0-2.352-.33-3.085-.998-.731-.668-1.099-1.573-1.099-2.717 0-1.143.533-2.071 1.595-2.781 1.062-.713 2.435-1.067 4.134-1.067h3.17v-1.585c0-.913-.308-1.63-.922-2.15-.616-.522-1.48-.785-2.602-.785-1.025 0-1.856.24-2.489.71-.627.478-.943 1.07-.943 1.785h-1.391l-.029-.068c-.05-.964.386-1.809 1.312-2.539.922-.729 2.13-1.095 3.616-1.095 1.481 0 2.68.36 3.584 1.081.903.713 1.356 1.743 1.356 3.09v6.291c0 .452.022.889.077 1.314.058.426.15.852.271 1.263h-1.566zm-4.823-1.003c1.155 0 1.985-.26 2.832-.777.843-.513 1.416-1.183 1.716-1.993v-2.449h-3.184c-1.217 0-2.224.272-3.016.822-.794.548-1.196 1.21-1.196 1.981 0 .728.255 1.31.76 1.75.509.446 1.203.666 2.088.666z"/></g><text fill="#FFF" font-family=".SFNSText-Regular, .SF NS Text" font-size="14"><tspan x="40" y="17">GET IT ON</tspan></text></g></svg></svg>