<svg xmlns="http://www.w3.org/2000/svg" width="41" height="40" viewBox="0 0 41 40">
    <g fill="none" fill-rule="evenodd">
        <circle cx="20.5" cy="20.5" r="20.5" fill="#0BAC00"/>
        <path fill="#FFF" fill-rule="nonzero" d="M35 19.64c0 7.532-6.153 13.639-13.746 13.639-2.41 0-4.674-.616-6.644-1.697L7 34l2.481-7.318a13.496 13.496 0 0 1-1.972-7.043C7.509 12.106 13.663 6 21.254 6 28.847 6 35 12.106 35 19.64zM21.254 8.171c-6.372 0-11.556 5.144-11.556 11.467 0 2.51.818 4.833 2.201 6.724l-1.443 4.258 4.44-1.411a11.549 11.549 0 0 0 6.359 1.897c6.372 0 11.556-5.144 11.556-11.467S27.627 8.172 21.254 8.172zm6.942 14.609c-.085-.14-.31-.223-.646-.39-.337-.167-1.994-.977-2.302-1.088-.31-.111-.535-.167-.759.167-.224.335-.87 1.088-1.067 1.31-.197.224-.393.252-.73.085-.337-.167-1.422-.52-2.71-1.66-1-.885-1.677-1.979-1.874-2.314-.196-.335-.02-.515.148-.682.152-.15.337-.39.506-.585.168-.196.224-.335.336-.558.113-.223.057-.418-.028-.586-.084-.167-.758-1.812-1.039-2.482-.28-.669-.56-.557-.758-.557-.196 0-.421-.028-.646-.028-.224 0-.59.084-.898.418-.31.335-1.18 1.144-1.18 2.788 0 1.646 1.208 3.235 1.376 3.458.169.223 2.33 3.708 5.756 5.047 3.426 1.338 3.426.892 4.044.836.617-.056 1.993-.809 2.274-1.59.28-.78.28-1.45.197-1.59z"/>
    </g>
</svg>
