<svg xmlns="http://www.w3.org/2000/svg" width="28" height="30" viewBox="0 0 28 30">
    <g fill="none" fill-rule="evenodd">
        <circle cx="21.5" cy="13.833" r="1.167"/>
        <path fill="#FFAB00" fill-rule="nonzero" d="M22.705 23.11c-4.458-.39-6.639-2.738-7.47-3.955a5.288 5.288 0 0 1-4.342.956 5.261 5.261 0 0 1-4.122-5.133 5.261 5.261 0 0 1 4.514-5.204V.03L11.287 0A12.41 12.41 0 0 0 8.47.567c-3.199.977-5.482 3.044-6.866 5.604A12.302 12.302 0 0 0 0 12.274l.002.246-.002.204c0 .447.025.884.074 1.311.555 6.3 4.054 7.137 4.41 11.476.02.269.03.539.03.809V30h13.542v-3.455l1.956.375a3.628 3.628 0 0 0 4.321-2.951 1.505 1.505 0 0 1-1.629-.86z"/>
        <path fill="#FFAB00" fill-rule="nonzero" d="M27.788 15.93l-2.776-4.66c-.225-2.85-1.143-5.664-3.042-7.768.025-.235.04-.476.04-.722-1.191-.993-2.864-1.713-4.655-2.172C16.091.218 14.647 0 13.003 0H13a.925.925 0 0 1 .003.075v9.747a5.256 5.256 0 0 1 4.503 5.206 5.24 5.24 0 0 1-.998 3.085c.46.768 2.228 3.182 6.533 3.554a1.498 1.498 0 0 1 1.754-.53l.217-2.353 2.176-.901c.75-.3 1.05-1.202.6-1.954zm-6.154-.902a1.126 1.126 0 1 1 .001-2.253 1.126 1.126 0 0 1 0 2.253z"/>
        <circle cx="12" cy="15" r="3" fill="#FFAB00" fill-rule="nonzero"/>
    </g>
</svg>
