<svg xmlns="http://www.w3.org/2000/svg" width="24" height="32" viewBox="0 0 24 32">
    <path fill="#FFF" fill-rule="evenodd" d="M12.87 23.706v2.443c0 .47-.39.851-.871.851a.881.881 0 0 1-.617-.25.838.838 0 0 1-.256-.6v-2.445A1.947 1.947 0 0 1 10 21.95c0-1.077.895-1.95 2-1.95 1.104 0 2 .873 2 1.95 0 .773-.46 1.44-1.13 1.756M8.036 6.947a6.42 6.42 0 0 1 .31-1.155c.164-.358.36-.698.586-1.02.246-.3.518-.578.814-.828.315-.23.65-.43 1.002-.597a6.132 6.132 0 0 1 1.137-.317c.404-.04.81-.04 1.214 0 .392.069.774.175 1.146.319a6.25 6.25 0 0 1 1.002.597c.293.25.563.524.807.822.227.322.423.663.587 1.022.144.387.25.786.318 1.195.072.781.03 1.586.03 2.366V13H8V8.235c0-.43-.004-.86.035-1.288m13.559 5.936h-2.171V7.59a7.964 7.964 0 0 0-.867-3.565C17.544 2.002 15.496.467 13.305.112c-1.121-.181-2.242-.154-3.34.164-1.016.294-1.896.819-2.717 1.483-.706.572-1.3 1.332-1.736 2.136-.522.963-.79 1.984-.903 3.072-.082.787-.031 1.602-.031 2.392v3.524H2.407C1.077 12.883 0 13.987 0 15.348v14.187C0 30.895 1.077 32 2.407 32h19.187C22.923 32 24 30.896 24 29.535V15.348c0-1.36-1.077-2.465-2.406-2.465"/>
</svg>
