<svg xmlns="http://www.w3.org/2000/svg" width="41" height="40" viewBox="0 0 41 40">
    <g fill="none" fill-rule="evenodd">
        <circle cx="20.5" cy="20.5" r="20.5" fill="#66C200"/>
        <path fill="#FFF" d="M29.61 17.704a.274.274 0 0 1-.272.276h-2.669v1.043h2.669c.15 0 .272.124.272.277v.993a.274.274 0 0 1-.272.276h-2.669v1.044h2.669c.15 0 .272.124.272.276v.994a.274.274 0 0 1-.272.276h-3.923a.27.27 0 0 1-.19-.077l-.003-.004a.276.276 0 0 1-.08-.195V16.71c0-.074.029-.14.076-.19 0-.002.002-.003.004-.005l.003-.003a.268.268 0 0 1 .19-.078h3.923c.15 0 .272.124.272.276v.994zm-5.423 5.18a.274.274 0 0 1-.272.274h-.982a.277.277 0 0 1-.07-.009h-.004l-.02-.007-.007-.003-.013-.005a.159.159 0 0 1-.013-.007l-.008-.004a.096.096 0 0 1-.017-.01c0-.002-.002-.002-.003-.003a.28.28 0 0 1-.069-.067l-2.799-3.826v3.667a.274.274 0 0 1-.273.274h-.982a.274.274 0 0 1-.272-.274V16.71c0-.152.122-.276.272-.276h.992l.014.002c.005 0 .01 0 .015.002l.01.001c.007 0 .011.002.017.004a.1.1 0 0 0 .01.002l.015.005a.242.242 0 0 1 .01.004l.015.006.009.005.014.008.008.004.014.01.007.006.015.012.005.005c.005.006.011.01.016.017l.002.002c.008.009.015.018.021.028l2.796 3.82V16.71c0-.152.122-.276.273-.276h.982c.15 0 .272.124.272.276v6.174zm-6.76 0a.273.273 0 0 1-.272.274h-.982a.274.274 0 0 1-.273-.274V16.71c0-.152.123-.276.273-.276h.982c.151 0 .273.124.273.276v6.174zm-2.367-.001a.274.274 0 0 1-.272.276h-3.923a.27.27 0 0 1-.192-.08l-.004-.006a.273.273 0 0 1-.076-.19V16.71c0-.152.122-.276.272-.276h.982c.15 0 .273.124.273.276v4.903h2.668c.15 0 .272.123.272.276v.994zM34 19.498C34 13.158 27.72 8 20 8 12.28 8 6 13.158 6 19.498c0 5.684 4.98 10.444 11.708 11.343.456.1 1.077.305 1.234.7.14.357.092.919.045 1.28l-.2 1.213c-.06.358-.28 1.401 1.213.764 1.494-.637 8.062-4.805 11-8.226h-.001C33.028 24.32 34 22.035 34 19.498z"/>
    </g>
</svg>
