<svg xmlns="http://www.w3.org/2000/svg" width="72" height="99" viewBox="0 0 72 99">
    <defs>
        <filter id="a" width="102.2%" height="103.6%" x="-1.1%" y="-1.3%" filterUnits="objectBoundingBox">
            <feOffset dy="2" in="SourceAlpha" result="shadowOffsetOuter1"/>
            <feGaussianBlur in="shadowOffsetOuter1" result="shadowBlurOuter1" stdDeviation="2"/>
            <feColorMatrix in="shadowBlurOuter1" result="shadowMatrixOuter1" values="0 0 0 0 0 0 0 0 0 0 0 0 0 0 0 0 0 0 0.5 0"/>
            <feMerge>
                <feMergeNode in="shadowMatrixOuter1"/>
                <feMergeNode in="SourceGraphic"/>
            </feMerge>
        </filter>
    </defs>
    <g fill="#FFF" fill-rule="nonzero" filter="url(#a)" transform="translate(-297 -138)">
        <path d="M325.568 216.932h-3.252a2.025 2.025 0 0 0-2.025 2.025v3.252c0 1.118.907 2.025 2.025 2.025h3.252a2.025 2.025 0 0 0 2.025-2.025v-3.252a2.025 2.025 0 0 0-2.025-2.025z"/>
        <path d="M364.247 173.456h-17.764v-8.278c0-4.815-3.917-8.732-8.732-8.732h-27.618c-4.815 0-8.732 3.917-8.732 8.732v56.301c0 4.815 3.917 8.732 8.732 8.732h27.618c4.815 0 8.732-3.917 8.732-8.732v-13.766h17.764v-34.257zm-3.099 31.158H319.01v-6.288h5.112a1.549 1.549 0 1 0 0-3.098h-5.112v-.04h-5.267a1.549 1.549 0 1 1 0-3.098h10.38c.125 0 .246.016.362.044h11.179a1.549 1.549 0 1 0 0-3.098H319.01v-5.478h8.909a1.549 1.549 0 1 0 0-3.098h-8.909v-3.904h42.138v28.058zm-23.396 22.498h-27.619a5.64 5.64 0 0 1-5.633-5.633v-56.301a5.64 5.64 0 0 1 5.633-5.633h27.618a5.64 5.64 0 0 1 5.633 5.633v8.278h-3.95v-4.675H308.45v44.066h30.986v-5.134h3.95v13.766a5.64 5.64 0 0 1-5.634 5.633z"/>
        <path d="M344.865 186.491c0 2.433 1.452 3.558 4.397 4.356v3.252c-.941-.205-1.759-.593-2.618-1.145a1.483 1.483 0 0 0-.798-.266c-.798 0-1.411.593-1.411 1.391 0 .552.266.961.695 1.227a10.232 10.232 0 0 0 4.029 1.431v1.104c0 .593.47 1.063 1.063 1.063s1.063-.47 1.063-1.063v-1.084c2.577-.286 4.335-1.759 4.335-4.049 0-2.29-1.329-3.558-4.438-4.397v-3.108c.552.143 1.125.389 1.697.695.225.123.47.184.716.184.777 0 1.391-.593 1.391-1.37 0-.613-.348-1.002-.736-1.227-.879-.491-1.861-.818-2.965-.982v-.286c0-.593-.47-1.063-1.063-1.063s-1.063.47-1.063 1.063v.245c-2.577.266-4.294 1.779-4.294 4.029zm6.319 4.867c1.104.389 1.452.838 1.452 1.513 0 .736-.491 1.186-1.452 1.329v-2.842zm-1.923-6.34v2.761c-1.125-.409-1.411-.838-1.411-1.472 0-.655.43-1.145 1.411-1.289zM307.308 148.693a1.54 1.54 0 0 0 1.046-.407c3.526-3.23 9.353-5.158 15.588-5.158 6.235 0 12.062 1.928 15.588 5.158a1.55 1.55 0 1 0 2.093-2.285c-4.082-3.738-10.691-5.971-17.681-5.971-6.989 0-13.599 2.232-17.681 5.971a1.55 1.55 0 0 0 1.047 2.692z"/>
        <path d="M323.942 146.42c-4.501 0-8.607 1.234-11.267 3.387a1.55 1.55 0 0 0 1.949 2.409c2.087-1.689 5.57-2.697 9.318-2.697 3.748 0 7.231 1.008 9.318 2.697a1.55 1.55 0 0 0 1.949-2.409c-2.659-2.152-6.766-3.387-11.267-3.387z"/>
    </g>
</svg>
