<svg xmlns="http://www.w3.org/2000/svg" width="67" height="67" viewBox="0 0 67 67">
    <defs>
        <filter id="a" width="102.2%" height="103.6%" x="-1.1%" y="-1.3%" filterUnits="objectBoundingBox">
            <feOffset dy="2" in="SourceAlpha" result="shadowOffsetOuter1"/>
            <feGaussianBlur in="shadowOffsetOuter1" result="shadowBlurOuter1" stdDeviation="2"/>
            <feColorMatrix in="shadowBlurOuter1" result="shadowMatrixOuter1" values="0 0 0 0 0 0 0 0 0 0 0 0 0 0 0 0 0 0 0.5 0"/>
            <feMerge>
                <feMergeNode in="shadowMatrixOuter1"/>
                <feMergeNode in="SourceGraphic"/>
            </feMerge>
        </filter>
    </defs>
    <g fill="#FFF" fill-rule="nonzero" filter="url(#a)" transform="translate(-484 -159)">
        <path d="M546.015 187.593l-2.861-3.736a.683.683 0 0 1-.137-.505l.628-4.536a4.782 4.782 0 0 0-2.957-5.096L536.385 172a.683.683 0 0 1-.382-.383l-1.722-4.303a4.78 4.78 0 0 0-5.095-2.965l-4.528.629a.683.683 0 0 1-.512-.137l-3.736-2.855a4.78 4.78 0 0 0-5.813 0l-3.736 2.862a.683.683 0 0 1-.512.137l-4.535-.629a4.78 4.78 0 0 0-5.095 2.958l-1.722 4.303a.683.683 0 0 1-.382.383l-4.303 1.721a4.782 4.782 0 0 0-2.957 5.096l.628 4.536a.683.683 0 0 1-.137.505l-2.861 3.736a4.782 4.782 0 0 0 0 5.814l2.861 3.736c.111.144.16.325.137.505l-.628 4.536a4.782 4.782 0 0 0 2.957 5.096l4.303 1.721c.175.07.313.208.382.383l1.722 4.303a4.78 4.78 0 0 0 5.095 2.958l4.528-.629a.683.683 0 0 1 .512.137l3.736 2.862a4.78 4.78 0 0 0 5.813 0l3.736-2.862a.683.683 0 0 1 .512-.137l4.535.629a4.78 4.78 0 0 0 5.095-2.958l1.722-4.303a.683.683 0 0 1 .382-.383l4.303-1.721a4.782 4.782 0 0 0 2.957-5.096l-.628-4.536a.683.683 0 0 1 .137-.505l2.861-3.736a4.782 4.782 0 0 0 0-5.814zm-3.244 3.327l-2.869 3.737a4.782 4.782 0 0 0-.942 3.558l.628 4.53a.683.683 0 0 1-.423.737l-4.303 1.721a4.781 4.781 0 0 0-2.664 2.664l-1.721 4.304a.683.683 0 0 1-.724.423l-4.535-.628a4.78 4.78 0 0 0-3.559.942l-3.742 2.87a.683.683 0 0 1-.834 0l-3.736-2.87a4.822 4.822 0 0 0-3.558-.942l-4.535.628a.683.683 0 0 1-.731-.423l-1.721-4.304a4.781 4.781 0 0 0-2.664-2.664l-4.303-1.721a.683.683 0 0 1-.423-.73l.628-4.53a4.782 4.782 0 0 0-.942-3.559l-2.87-3.743a.683.683 0 0 1 0-.833l2.863-3.737a4.782 4.782 0 0 0 .942-3.559l-.628-4.528a.683.683 0 0 1 .43-.738l4.303-1.721a4.781 4.781 0 0 0 2.664-2.665l1.721-4.303a.683.683 0 0 1 .73-.423l4.536.628a4.78 4.78 0 0 0 3.558-.943l3.736-2.869a.683.683 0 0 1 .827 0l3.736 2.863a4.828 4.828 0 0 0 3.558.942l4.535-.628a.683.683 0 0 1 .724.423l1.722 4.304a4.781 4.781 0 0 0 2.663 2.664l4.317 1.728a.683.683 0 0 1 .423.73l-.628 4.53a4.782 4.782 0 0 0 .942 3.558l2.87 3.744c.188.245.188.587 0 .833z"/>
        <path d="M525.505 181.676l-11.324 13.397-5.922-4.915a1.997 1.997 0 0 0-2.801.326 2.09 2.09 0 0 0 .238 2.863l7.42 6.187a1.997 1.997 0 0 0 2.812-.248l12.612-14.915a2.09 2.09 0 0 0-.241-2.87 1.997 1.997 0 0 0-2.82.175h.026z"/>
    </g>
</svg>
