<svg xmlns="http://www.w3.org/2000/svg" xmlns:xlink="http://www.w3.org/1999/xlink" width="180" height="68" viewBox="0 0 180 68">
    <defs>
        <filter id="a" width="108.1%" height="123.3%" x="-4.1%" y="-8.3%" filterUnits="objectBoundingBox">
            <feOffset dy="2" in="SourceAlpha" result="shadowOffsetOuter1"/>
            <feGaussianBlur in="shadowOffsetOuter1" result="shadowBlurOuter1" stdDeviation="2"/>
            <feColorMatrix in="shadowBlurOuter1" result="shadowMatrixOuter1" values="0 0 0 0 0 0 0 0 0 0 0 0 0 0 0 0 0 0 0.5 0"/>
            <feMerge>
                <feMergeNode in="shadowMatrixOuter1"/>
                <feMergeNode in="SourceGraphic"/>
            </feMerge>
        </filter>
        <linearGradient id="c" x1="19.215%" x2="69.302%" y1="-35.157%" y2="93.537%">
            <stop offset="0%" stop-color="#19A3B4"/>
            <stop offset="34.817%" stop-color="#5BC3AF"/>
            <stop offset="92.234%" stop-color="#C8F7A6"/>
            <stop offset="100%" stop-color="#D7FEA5"/>
        </linearGradient>
        <path id="b" d="M20.245 9.637L3.13.288C2.644.024 2.196-.037 1.834.075l14.02 13.926 4.391-4.364"/>
        <linearGradient id="d" x1="-14.698%" x2="74.844%" y1="-114.322%" y2="114.156%">
            <stop offset="0%" stop-color="#FC227C"/>
            <stop offset="100%" stop-color="#FEEB7B"/>
        </linearGradient>
        <linearGradient id="f" x1="28.151%" x2="48.188%" y1="-14.814%" y2="82.894%">
            <stop offset="0%" stop-color="#0E4DA0"/>
            <stop offset="100%" stop-color="#6BFED4"/>
        </linearGradient>
        <path id="e" d="M1.833.075C1.313.237.975.761.975 1.553l.003 24.93c0 .783.327 1.299.832 1.47l14.043-13.95L1.833.075"/>
        <linearGradient id="h" x1="132.245%" x2="5.959%" y1="16.466%" y2="126.31%">
            <stop offset="0%" stop-color="#FC472E"/>
            <stop offset=".332%" stop-color="#FC472F"/>
            <stop offset="100%" stop-color="#893CD8"/>
        </linearGradient>
        <path id="g" d="M1.81 27.954c.365.122.822.065 1.32-.206l17.135-9.362-4.412-4.383L1.81 27.953"/>
    </defs>
    <g fill="none" fill-rule="evenodd" filter="url(#a)" transform="translate(4 2)">
        <rect width="172" height="60" fill="#000" rx="10"/>
        <g transform="translate(7 25)">
            <use fill="url(#c)" xlink:href="#b"/>
            <path fill="url(#d)" d="M20.268 18.386l5.843-3.191c1.184-.65 1.184-1.706 0-2.354l-5.865-3.204-4.393 4.364 4.415 4.385"/>
            <use fill="url(#f)" xlink:href="#e"/>
            <use fill="url(#h)" xlink:href="#g"/>
        </g>
        <g fill="#FFF">
            <path d="M117.173 45.212l-1.285 1.227c-.297.165-.593.357-.887.493-.893.41-1.8.513-2.607.513-.858 0-2.204-.056-3.576-1.06-1.907-1.36-2.74-3.696-2.74-5.731 0-4.215 3.39-6.282 6.156-6.282.967 0 1.96.245 2.767.761 1.342.898 1.69 2.066 1.882 2.69l-6.316 2.583-2.069.162c.67 3.456 2.98 5.466 5.534 5.466 1.275 0 2.222-.421 3.09-.856 0 0 .175-.091.05.034zm-3.81-6.874c.512-.188.779-.35.779-.73 0-1.085-1.214-2.34-2.663-2.34-1.074 0-3.089.846-3.089 3.783 0 .459.054.947.081 1.435l4.891-2.147z"/>
            <path d="M103.967 45.002c0 1.056.186 1.22 1.069 1.303.46.055.919.08 1.372.134l-.993.599h-4.735c.621-.816.728-.897.728-1.44v-.606l-.01-16.163h-2.091l2.012-.981h3.843c-.833.488-1.082.785-1.19 1.737l-.005 15.417"/>
            <path d="M96.623 35.706c.617.513 1.905 1.602 1.905 3.668 0 2.013-1.122 2.962-2.253 3.86-.347.353-.754.737-.754 1.33 0 .602.407.928.699 1.171l.97.758c1.18 1.008 2.256 1.932 2.256 3.809 0 2.557-2.446 5.135-7.068 5.135-3.893 0-5.775-1.876-5.775-3.887 0-.98.481-2.366 2.07-3.315 1.666-1.03 3.923-1.168 5.131-1.249-.377-.493-.808-1.01-.808-1.852 0-.46.137-.735.27-1.06-.295.03-.59.058-.86.058-2.85 0-4.46-2.15-4.46-4.27 0-1.25.564-2.638 1.721-3.643 1.532-1.276 3.358-1.496 4.81-1.496h5.537l-1.722.983h-1.669zM94.72 47.774c-.22-.029-.353-.029-.619-.029-.244 0-1.695.053-2.82.435-.594.22-2.313.87-2.313 2.8 0 1.928 1.856 3.317 4.727 3.317 2.58 0 3.95-1.25 3.95-2.935 0-1.386-.887-2.118-2.925-3.588zm.772-5.165c.621-.628.675-1.495.675-1.987 0-1.955-1.152-5-3.385-5-.697 0-1.452.354-1.88.9-.455.567-.59 1.302-.59 2.008 0 1.82 1.049 4.84 3.357 4.84.673 0 1.398-.331 1.823-.761zM79.966 47.389c-4.27 0-6.556-3.365-6.556-6.412 0-3.56 2.873-6.605 6.959-6.605 3.95 0 6.423 3.129 6.423 6.414 0 3.208-2.445 6.603-6.826 6.603zm3.36-2.2c.65-.87.807-1.955.807-3.014 0-2.394-1.127-6.96-4.46-6.96-.886 0-1.778.35-2.421.923-1.05.951-1.237 2.147-1.237 3.32 0 2.685 1.312 7.115 4.569 7.115 1.05 0 2.123-.515 2.742-1.383zM65.667 47.389c-4.271 0-6.552-3.365-6.552-6.412 0-3.56 2.873-6.605 6.957-6.605 3.948 0 6.42 3.129 6.42 6.414 0 3.208-2.443 6.603-6.825 6.603zm3.36-2.2c.646-.87.807-1.955.807-3.014 0-2.394-1.131-6.96-4.46-6.96-.89 0-1.772.35-2.417.923-1.05.951-1.237 2.147-1.237 3.32 0 2.685 1.317 7.115 4.568 7.115 1.049 0 2.12-.515 2.74-1.383zM57.407 46.446l-3.602.834c-1.46.233-2.77.438-4.158.438-6.947 0-9.594-5.175-9.594-9.224 0-4.945 3.75-9.53 10.174-9.53 1.359 0 2.666.202 3.857.53 1.888.537 2.771 1.198 3.323 1.586l-2.093 2.01-.882.2.63-1.014c-.853-.842-2.419-2.396-5.39-2.396-3.975 0-6.972 3.056-6.972 7.518 0 4.793 3.423 9.3 8.912 9.3 1.613 0 2.444-.327 3.198-.633v-4.109l-3.804.207 2.016-1.095h5.338l-.653.635c-.176.152-.2.203-.25.406-.025.232-.05.97-.05 1.23v3.107M124.917 45.328v6.924h-1.359V34.634h1.36v2.006c.885-1.297 2.502-2.324 4.381-2.324 3.37 0 5.64 2.586 5.64 6.68 0 4.068-2.27 6.709-5.64 6.709-1.774 0-3.363-.926-4.382-2.377zm8.562-4.331c0-3.086-1.59-5.44-4.409-5.44-1.75 0-3.425 1.392-4.153 2.606v5.64c.728 1.216 2.402 2.659 4.153 2.659 2.82 0 4.41-2.374 4.41-5.465zM136.795 29.769h1.359v17.618h-1.359zM153.404 51.113c.29.131.786.212 1.1.212.832 0 1.41-.344 1.93-1.559l.992-2.272-5.354-12.86h1.516l4.593 11.144 4.548-11.144h1.537l-6.53 15.558c-.677 1.603-1.743 2.374-3.207 2.374-.44 0-1.02-.079-1.359-.184l.234-1.269M149.434 47.35c-.09-.443-.16-.833-.21-1.158a7.854 7.854 0 0 1-.065-.994c-.466.692-1.126 1.268-1.969 1.721-.844.457-1.645.681-2.745.681-1.324 0-2.352-.33-3.085-.998-.731-.668-1.099-1.573-1.099-2.717 0-1.143.533-2.071 1.595-2.781 1.062-.713 2.435-1.067 4.134-1.067h3.17v-1.585c0-.913-.308-1.63-.922-2.15-.616-.522-1.48-.785-2.602-.785-1.025 0-1.856.24-2.489.71-.627.478-.943 1.07-.943 1.785h-1.391l-.029-.068c-.05-.964.386-1.809 1.312-2.539.922-.729 2.13-1.095 3.616-1.095 1.481 0 2.68.36 3.584 1.081.903.713 1.356 1.743 1.356 3.09v6.291c0 .452.022.889.077 1.314.058.426.15.852.271 1.263h-1.566zm-4.823-1.003c1.155 0 1.985-.26 2.832-.777.843-.513 1.416-1.183 1.716-1.993v-2.449h-3.184c-1.217 0-2.224.272-3.016.822-.794.548-1.196 1.21-1.196 1.981 0 .728.255 1.31.76 1.75.509.446 1.203.666 2.088.666z"/>
        </g>
        <text fill="#FFF" font-family=".SFNSText-Regular, .SF NS Text" font-size="14">
            <tspan x="40" y="17">GET IT ON</tspan>
        </text>
    </g>
</svg>
